<?xml version="1.0" encoding="UTF-8" standalone="no"?><!DOCTYPE svg PUBLIC "-//W3C//DTD SVG 1.1//EN" "http://www.w3.org/Graphics/SVG/1.1/DTD/svg11.dtd"><svg width="100%" height="100%" viewBox="0 0 311 488" version="1.1" xmlns="http://www.w3.org/2000/svg" xmlns:xlink="http://www.w3.org/1999/xlink" xml:space="preserve" xmlns:serif="http://www.serif.com/" style="fill-rule:evenodd;clip-rule:evenodd;stroke-linecap:round;stroke-linejoin:round;stroke-miterlimit:1.5;"><path id="Bear" d="M287.824,283.637c-2.877,7.675 -7.088,29.366 -13.43,42.849c-6.342,13.484 -19.186,30.751 -24.622,38.053c-1.961,2.634 -13.163,9.17 -16.442,9.008c-4.317,-0.213 -9.743,-5.531 -14.625,-9.89c-5.555,-4.959 -10.077,-7.931 -17.858,-11.269c-4.743,-2.035 -9.422,-3.456 -14.685,-3.708c-2.853,-0.136 -6.381,-0.023 -8.779,-0.285c-5.737,-0.627 -18.454,-0.274 -24.222,-0.484c-7.301,-0.267 -18.423,0.532 -27.137,2.064c-10.605,1.866 -20.477,4.67 -27.953,10.717c-3.34,2.703 -7.836,10.068 -12.132,10.068c-5.383,0 -15.078,-7.554 -21.953,-11.657c-6.75,-4.03 -13.163,-9.433 -17.907,-15.349c-4.742,-5.914 -7.621,-14.23 -10.552,-20.146c-2.499,-5.043 -5.044,-10.084 -7.035,-15.349c-2.398,-6.342 -5.649,-18.013 -7.355,-22.703c-0.7,-1.927 -1.439,-5.33 -2.878,-5.436c-1.439,-0.107 -5.341,2.334 -5.755,4.796c-0.853,5.063 -0.319,17.106 0.639,25.582c1.066,9.433 3.731,21.851 5.756,31.017c1.785,8.079 3.738,16.148 6.395,23.983c3.091,9.113 7.142,21.211 12.152,30.698c4.942,9.359 11.411,17.864 17.907,26.221c8.74,11.245 24.195,31.604 34.535,41.25c7.832,7.308 18.226,12.791 27.5,16.628c8.888,3.678 19.079,6.182 28.139,6.395c8.903,0.21 17.598,-2.892 26.221,-5.116c10.126,-2.611 23.93,-4.903 34.535,-10.552c10.606,-5.65 20.999,-15.243 29.099,-23.343c7.523,-7.523 14.076,-16.114 19.506,-25.262c5.916,-9.966 11.565,-23.29 15.989,-34.535c4.22,-10.728 7.834,-22.757 10.552,-32.936c2.47,-9.25 4.039,-18.721 5.756,-28.14c1.759,-9.646 4.104,-22.65 4.796,-29.738c0.416,-4.249 -0.586,-10.02 -0.639,-12.791c-0.025,-1.283 0.906,-3.731 0.32,-3.837c-0.587,-0.107 -3.253,1.638 -3.838,3.197Zm-80.449,113.556c-1.926,2.414 -5.001,6.156 -8.346,8.13c-3.93,2.318 -10.014,4.271 -15.23,5.78c-6.206,1.796 -14.69,4.404 -22.009,4.995c-7.294,0.589 -15.479,-0.679 -21.905,-1.448c-5.609,-0.672 -12.811,-2.042 -16.65,-3.169c-2.344,-0.689 -4.721,-2.453 -6.386,-3.596c-1.335,-0.916 -2.594,-2.241 -3.603,-3.258c-0.881,-0.889 -1.831,-1.758 -2.45,-2.846c-0.695,-1.221 -1.607,-2.884 -1.72,-4.479c-0.202,-2.836 -0.597,-8.86 0.511,-12.535c1.09,-3.614 2.932,-7.526 6.14,-9.516c3.368,-2.089 9.334,-2.256 14.07,-3.019c5.244,-0.844 11.566,-1.722 17.395,-2.046c6.14,-0.341 13.089,-0.043 19.442,0c6.225,0.041 12.833,-0.64 18.675,0.255c5.651,0.867 12.023,2.814 16.372,5.117c3.842,2.034 8.236,6.15 9.721,8.697c1.113,1.911 -0.086,4.229 -0.814,6.585c-0.302,0.978 -1.732,4.499 -3.213,6.353Z" style="stroke:#000;stroke-width:1px;"/><path id="Hair" d="M287.67,161.229c-0.307,-8.871 0.034,-28.413 -1.474,-39.989c-1.309,-10.058 -3.99,-20.841 -7.572,-29.47c-3.359,-8.095 -9.516,-15.69 -13.916,-22.307c-3.952,-5.943 -8.084,-12.211 -12.484,-17.396c-4.214,-4.965 -8.698,-10.062 -13.916,-13.711c-5.219,-3.65 -12.552,-6.89 -17.396,-8.186c-3.758,-1.006 -8.493,-1.024 -11.665,0.409c-3.172,1.432 -5.014,5.368 -7.367,8.186c-2.593,3.104 -4.761,7.641 -8.186,10.437c-3.718,3.036 -9.014,6.107 -14.121,7.777c-5.424,1.774 -13.644,3.002 -18.419,2.865c-3.624,-0.103 -6.944,-2.159 -10.233,-3.684c-3.752,-1.739 -8.413,-4.131 -12.279,-6.753c-3.922,-2.661 -7.879,-6.31 -11.256,-9.209c-3.077,-2.643 -5.361,-6.403 -9.004,-8.187c-4.81,-2.353 -13.166,-6.821 -19.852,-5.934c-6.685,0.886 -15.178,7.231 -20.26,11.255c-4.301,3.407 -7.361,8.218 -10.233,12.894c-2.933,4.775 -4.143,10.939 -7.367,15.758c-4.69,7.009 -15.711,18.823 -20.772,26.298c-3.903,5.763 -8.252,11.716 -9.593,18.546c-1.759,8.954 0.213,25.741 -0.96,35.175c-0.915,7.366 -3.89,18.866 -6.075,21.424c-2.013,2.356 -6.62,-3.005 -7.035,-6.075c-1.066,-7.888 0.32,-29.259 0.639,-41.251c0.273,-10.237 -1.439,-20.944 1.279,-30.697c2.718,-9.753 8.552,-19.506 15.03,-27.82c7.141,-9.167 18.386,-19.506 27.819,-27.181c8.898,-7.239 19.4,-13.963 28.78,-18.866c8.701,-4.548 17.968,-8.195 27.5,-10.552c9.913,-2.452 22.117,-3.624 31.977,-4.157c9.052,-0.49 18.252,-0.617 27.18,0.959c9.966,1.759 22.205,5.116 32.616,9.593c10.659,4.583 21.994,10.328 31.338,17.907c10.445,8.474 24.302,24.782 31.337,32.936c4.21,4.88 7.819,10.313 10.872,15.989c3.784,7.035 9.647,17.587 11.832,26.221c2.094,8.277 1.332,17.64 1.279,25.581c-0.05,7.374 -1.066,16.628 -1.599,22.064c-0.347,3.541 -0.959,7.515 -1.599,10.553c-0.549,2.607 -1.492,5.702 -2.238,7.674c-0.557,1.472 -1.804,5.67 -2.239,4.157c-0.434,-1.513 -0.216,-8.823 -0.368,-13.233Z" style="stroke:#000;stroke-width:1px;"/><path id="Glasses" d="M149.077,208.482c0,0 17.498,-1.842 18.88,0c1.381,1.842 3.837,22.87 3.837,22.87l6.139,18.879l10.745,12.893l9.823,5.219l11.358,3.223l13.507,2.149l14.121,0.461l15.349,-0.921l15.963,-3.531l12.433,-4.604l6.6,-7.521l4.911,-9.67l2.917,-9.363l2.302,-11.512l1.381,-10.59l1.842,-6.14l1.996,-1.688l6.293,0l0.92,-18.572l-2.302,-1.842l-15.042,-1.689l-21.181,-1.842l-24.098,-1.841l-21.489,0.46l-19.032,1.228l-19.954,2.763l-20.414,3.223c0,0 -5.832,2.302 -18.419,0.153c-12.586,-2.148 -18.725,-2.916 -18.725,-2.916l-20.261,-3.07l-19.953,-1.074l-22.256,-1.995l-17.038,0.307l-18.879,-0.154l-15.195,1.842l-12.586,2.149l-2.303,1.842l-0.46,4.911l-0.307,9.67l0.767,3.07l8.135,1.074l2.303,8.289l0.921,9.67l3.069,13.353l3.07,11.358l3.684,6.293l5.833,6.293l12.893,6.293l8.902,1.535l8.595,1.228c0,0 8.888,1.035 13.354,1.228c5.321,0.23 13.174,0.563 18.572,0.154c4.673,-0.355 9.285,-1.405 13.814,-2.61c4.809,-1.279 10.847,-2.865 15.042,-5.065c3.835,-2.011 7.316,-5.27 10.13,-8.135c2.639,-2.686 4.907,-5.774 6.754,-9.056c2.174,-3.862 4.707,-9.618 6.293,-14.121c1.472,-4.178 2.149,-8.8 3.223,-12.893c1.024,-3.902 3.223,-11.665 3.223,-11.665Zm-23.978,44.387c1.35,-2.026 5.423,-8.002 7.244,-11.542c1.583,-3.076 2.763,-6.406 3.684,-9.701c0.918,-3.286 1.416,-6.683 1.842,-10.069c0.43,-3.417 0.778,-7.858 0.737,-10.437c-0.027,-1.71 0.069,-3.686 -0.983,-5.034c-1.453,-1.863 -5.136,-4.462 -7.736,-6.14c-2.46,-1.589 -5.051,-3.093 -7.858,-3.929c-4.052,-1.208 -11.195,-2.538 -16.454,-3.316c-5,-0.739 -10.075,-0.84 -15.104,-1.35c-5.239,-0.532 -10.948,-1.576 -16.331,-1.842c-5.315,-0.263 -11.337,0.164 -15.963,0.245c-3.929,0.07 -7.879,-0.162 -11.788,0.246c-4.318,0.45 -10.437,1.494 -14.121,2.456c-2.787,0.728 -5.955,1.617 -7.981,3.315c-2.026,1.699 -3.243,4.362 -4.175,6.876c-1.085,2.927 -2.19,7.347 -2.333,10.683c-0.135,3.147 1.052,6.211 1.474,9.332c0.45,3.336 0.44,7.186 1.227,10.683c1.024,4.544 2.825,12.505 4.912,16.577c1.664,3.246 4.634,5.755 7.613,7.859c3.131,2.21 7.199,4.254 11.174,5.403c4.605,1.33 10.927,2.06 16.454,2.578c5.894,0.553 12.603,0.818 18.91,0.737c6.344,-0.082 14.142,-0.635 19.155,-1.228c3.7,-0.438 7.491,-1.248 10.929,-2.333c3.357,-1.059 7.265,-2.599 9.7,-4.175c2.019,-1.306 3.95,-4.298 4.912,-5.28c0.246,-0.252 0.664,-0.321 0.86,-0.614Zm149.232,5.06c2.993,-3.248 8.697,-10.462 11.204,-15.042c2.083,-3.804 2.816,-8.217 3.838,-12.432c1.023,-4.221 1.969,-8.928 2.302,-12.893c0.304,-3.622 0.154,-7.956 -0.307,-10.898c-0.37,-2.367 -0.606,-5.231 -2.456,-6.753c-2.456,-2.021 -8.109,-3.991 -12.279,-5.373c-4.135,-1.37 -8.403,-2.5 -12.739,-2.916c-6.14,-0.588 -16.063,-0.663 -24.098,-0.614c-8.34,0.051 -18.24,0.205 -25.94,0.921c-6.817,0.634 -15.119,1.944 -20.26,3.377c-3.792,1.056 -7.956,2.788 -10.591,5.219c-2.627,2.422 -4.523,5.858 -5.219,9.362c-0.742,3.735 0.282,8.928 0.768,13.047c0.463,3.926 1.172,7.834 2.148,11.665c1.024,4.016 2.098,9.082 3.991,12.433c1.744,3.087 4.656,5.449 7.368,7.674c2.711,2.226 5.68,4.263 8.902,5.679c4.016,1.765 10.233,3.991 15.195,4.912c4.784,0.887 9.717,0.591 14.582,0.614c5.449,0.025 12.1,0.116 18.112,-0.461c6.139,-0.588 14.479,-1.816 18.725,-3.069c2.586,-0.764 4.927,-2.469 6.754,-4.452Z" style="stroke:#000;stroke-width:1px;"/></svg>