<?xml version="1.0" encoding="UTF-8" standalone="no"?><!DOCTYPE svg PUBLIC "-//W3C//DTD SVG 1.1//EN" "http://www.w3.org/Graphics/SVG/1.1/DTD/svg11.dtd"><svg width="100%" height="100%" viewBox="0 0 709 709" version="1.1" xmlns="http://www.w3.org/2000/svg" xmlns:xlink="http://www.w3.org/1999/xlink" xml:space="preserve" xmlns:serif="http://www.serif.com/" style="fill-rule:evenodd;clip-rule:evenodd;stroke-linejoin:round;stroke-miterlimit:2;"><path d="M598.635,97.693c67.847,64.575 110.161,155.738 110.161,256.705c0,195.598 -158.8,354.398 -354.398,354.398c-195.598,0 -354.398,-158.8 -354.398,-354.398c0,-195.598 158.8,-354.398 354.398,-354.398c91.749,0 175.402,34.94 238.367,92.23c-2.718,-2.462 -5.442,-4.86 -8.172,-7.198l-70.668,73.5c1.96,1.606 3.891,3.257 5.818,4.961c-44.321,-38.428 -102.137,-61.694 -165.345,-61.694c-139.413,0 -252.599,113.186 -252.599,252.599c0,139.413 113.186,252.599 252.599,252.599c139.413,0 252.599,-113.186 252.599,-252.599c0,-72.103 -30.275,-137.19 -78.797,-183.233l70.435,-73.472Z" style="fill:#ebebeb;"/><path d="M708.06,361.327l-349.087,0.125l0,97.148l334.279,0.473c10.689,-33.111 14.074,-62.934 14.808,-97.746Z" style="fill:#c90000;"/></svg>